<svg height="512pt" viewBox="0 0 512 512" width="512pt" xmlns="http://www.w3.org/2000/svg"><path d="m0 406.070312 93.574219-340.128906c2.046875-7.671875 9.007812-13 16.945312-12.976562h290.960938c7.9375-.023438 14.898437 5.304687 16.945312 12.976562l93.574219 340.128906zm0 0" fill="#ecf0f1"/><path d="m494.34375 512h-476.6875c-9.75 0-17.65625-7.90625-17.65625-17.65625v-88.273438h512v88.273438c0 9.75-7.90625 17.65625-17.65625 17.65625zm0 0" fill="#bdc3c7"/><path d="m0 441.378906h512v35.3125h-512zm0 0" fill="#ecf0f1"/><path d="m150.070312 0c9.75 0 17.652344 7.90625 17.652344 17.65625v44.136719c0 9.75-7.902344 17.65625-17.652344 17.65625-9.753906 0-17.65625-7.90625-17.65625-17.65625v-44.136719c0-9.75 7.902344-17.65625 17.65625-17.65625zm0 0" fill="#bdc3c7"/><path d="m361.929688 0c9.753906 0 17.65625 7.90625 17.65625 17.65625v44.136719c0 9.75-7.902344 17.65625-17.65625 17.65625-9.75 0-17.652344-7.90625-17.652344-17.65625v-44.136719c0-9.75 7.902344-17.65625 17.652344-17.65625zm0 0" fill="#bdc3c7"/><path d="m256 0c9.75 0 17.65625 7.90625 17.65625 17.65625v44.136719c0 9.75-7.90625 17.65625-17.65625 17.65625s-17.65625-7.90625-17.65625-17.65625v-44.136719c0-9.75 7.90625-17.65625 17.65625-17.65625zm0 0" fill="#bdc3c7"/><g fill="#35495e"><path d="m388.414062 141.242188h-264.828124c-4.875 0-8.828126-3.953126-8.828126-8.828126s3.953126-8.828124 8.828126-8.828124h264.828124c4.875 0 8.828126 3.953124 8.828126 8.828124s-3.953126 8.828126-8.828126 8.828126zm0 0"/><path d="m406.070312 203.035156h-300.140624c-4.875 0-8.828126-3.953125-8.828126-8.828125s3.953126-8.828125 8.828126-8.828125h300.140624c4.875 0 8.828126 3.953125 8.828126 8.828125s-3.953126 8.828125-8.828126 8.828125zm0 0"/><path d="m423.722656 273.65625h-45.371094c-4.875 0-8.828124-3.953125-8.828124-8.828125s3.953124-8.828125 8.828124-8.828125h45.371094c4.875 0 8.828125 3.953125 8.828125 8.828125s-3.953125 8.828125-8.828125 8.828125zm0 0"/><path d="m133.648438 273.65625h-45.371094c-4.875 0-8.828125-3.953125-8.828125-8.828125s3.953125-8.828125 8.828125-8.828125h45.371094c4.875 0 8.828124 3.953125 8.828124 8.828125s-3.953124 8.828125-8.828124 8.828125zm0 0"/></g><path d="m397.242188 335.449219c0 78.003906-63.238282 141.242187-141.242188 141.242187s-141.242188-63.238281-141.242188-141.242187c0-78.007813 63.238282-141.242188 141.242188-141.242188s141.242188 63.234375 141.242188 141.242188zm0 0" fill="#4482c3"/><path d="m229.429688 399.449219-41.933594 15.183593c-2.996094.738282-6.164063-.144531-8.351563-2.332031-2.183593-2.183593-3.066406-5.351562-2.328125-8.351562l15.183594-41.929688zm0 0" fill="#fac176"/><path d="m192.007812 362.011719 93.664063-93.574219 37.410156 37.445312-93.664062 93.574219zm0 0" fill="#f3d55b"/><path d="m335.535156 293.339844-12.445312 12.535156-37.429688-37.429688 12.449219-12.535156c10.433594-9.722656 26.691406-9.433594 36.777344.652344 10.085937 10.082031 10.371093 26.34375.648437 36.777344zm0 0" fill="#ff5364"/></svg>